<?xml version="1.0" encoding="UTF-8" standalone="no"?>
<svg
   xmlns:dc="http://purl.org/dc/elements/1.1/"
   xmlns:cc="http://creativecommons.org/ns#"
   xmlns:rdf="http://www.w3.org/1999/02/22-rdf-syntax-ns#"
   xmlns:svg="http://www.w3.org/2000/svg"
   xmlns="http://www.w3.org/2000/svg"
   version="1.1"
   viewBox="0 0 192 28"
   id="svg6">
  <defs
     id="defs10" />
  <metadata
     id="metadata2">
    <rdf:RDF>
      <cc:Work
         rdf:about="">
        <dc:format>image/svg+xml</dc:format>
        <dc:type
           rdf:resource="http://purl.org/dc/dcmitype/StillImage" />
        <dc:title></dc:title>
      </cc:Work>
    </rdf:RDF>
  </metadata>
  <path
     d="m36 0v8h-28v20h32v-28zm-36 8v8h4v-8zm44 0v20h32v-4h-28v-4h28v-12zm36 0v20h32v-20h-4v16h-24v-16zm36 0v12h28v4h-28v4h28 4v-12h-28v-4h28v-4zm36 0v20h32v-20zm36 0v8h4v-8zm-176 4h24v12h-24zm36 0h24v4h-24zm108 0h24v12h-24zm-156 8v8h4v-8zm188 0v8h4v-8z"
     color="#000000"
     color-rendering="auto"
     fill="#000000"
     image-rendering="auto"
     shape-rendering="auto"
     solid-color="#000000"
     style="isolation:auto;mix-blend-mode:normal;fill:#ffffff"
     id="path4" />
</svg>
